<svg width="12" height="13" viewBox="0 0 12 13" fill="none" xmlns="http://www.w3.org/2000/svg">
<path d="M9.61625 2.54625C9.47625 2.54625 9.33625 2.5725 9.205 2.6075V2.0475C9.205 2.0125 9.19625 1.98625 9.19625 1.95125C9.1875 1.925 9.1875 1.89 9.17875 1.86375C9.17 1.82875 9.17 1.8025 9.16125 1.7675L9.135 1.68C9.12625 1.65375 9.1175 1.61875 9.1 1.5925C9.09125 1.56625 9.0825 1.53125 9.065 1.505C9.05387 1.47697 9.03916 1.45051 9.02125 1.42625C8.99955 1.36807 8.96688 1.3146 8.925 1.26875L8.8725 1.19C8.84967 1.16889 8.82914 1.14543 8.81125 1.12L8.74125 1.05C8.72375 1.0325 8.6975 1.015 8.67125 0.98875C8.645 0.97125 8.6275 0.95375 8.60125 0.93625L8.5225 0.88375L8.44375 0.83125C8.4175 0.81375 8.39125 0.805 8.365 0.7875C8.33 0.77875 8.30375 0.76125 8.2775 0.7525C8.25125 0.735 8.21625 0.72625 8.19 0.7175L8.1025 0.69125L8.00625 0.665C7.98 0.665 7.945 0.65625 7.91875 0.6475C7.88375 0.6475 7.8575 0.6475 7.8225 0.63875H7.63875C7.60375 0.63875 7.5775 0.63875 7.5425 0.6475C7.51625 0.6475 7.48125 0.6475 7.455 0.65625C7.42 0.665 7.39375 0.665 7.35875 0.67375C7.3325 0.6825 7.30625 0.69125 7.27125 0.7L7.18375 0.72625C7.1575 0.735 7.1225 0.7525 7.09625 0.76125C7.06125 0.7 7.02625 0.6475 6.99125 0.595C6.9475 0.5425 6.90375 0.49 6.86 0.44625C6.81692 0.395635 6.76683 0.351438 6.71125 0.315C6.65875 0.27125 6.60625 0.23625 6.545 0.20125C6.43128 0.132262 6.30719 0.0820356 6.1775 0.0524999C6.11459 0.0328342 6.05023 0.0182048 5.985 0.00874999C5.92375 -8.14907e-09 5.85375 0 5.78375 0H5.6525C5.6 0.00875 5.55625 0.0175 5.5125 0.0175C5.46875 0.02625 5.425 0.04375 5.3725 0.0524999C5.32875 0.0699999 5.285 0.07875 5.24125 0.09625C5.1975 0.11375 5.1625 0.13125 5.11875 0.1575C5.075 0.175 5.03125 0.20125 4.99625 0.21875C4.96125 0.245 4.9175 0.27125 4.8825 0.2975C4.8475 0.3325 4.8125 0.35875 4.7775 0.385L4.6725 0.49C4.64625 0.525 4.62 0.56 4.585 0.595C4.55875 0.63 4.5325 0.67375 4.50625 0.70875C4.48875 0.7525 4.4625 0.7875 4.445 0.83125C4.41875 0.875 4.40125 0.91 4.38375 0.95375C4.36625 0.9975 4.3575 1.04125 4.34 1.085C4.33125 1.1375 4.3225 1.18125 4.31375 1.225C4.305 1.26875 4.29625 1.3125 4.2875 1.365C4.1475 1.32125 4.0075 1.30375 3.85875 1.30375C3.03625 1.3125 2.37125 1.98625 2.37125 2.8175V5.6175C2.17 5.53875 1.96875 5.48625 1.75 5.48625C1.63625 5.4775 1.5225 5.48625 1.40875 5.5125C1.295 5.53 1.18125 5.55625 1.07625 5.6C0.97125 5.64375 0.86625 5.69625 0.77 5.7575C0.67375 5.8275 0.58625 5.8975 0.49875 5.97625C0.46375 6.02 0.42875 6.055 0.39375 6.09875C0.35875 6.1425 0.32375 6.18625 0.2975 6.23C0.2625 6.27375 0.23625 6.3175 0.21 6.37C0.18375 6.41375 0.1575 6.46625 0.14 6.51C0.1225 6.5625 0.09625 6.615 0.0875 6.65875C0.07 6.71125 0.0525001 6.76375 0.0437501 6.81625C0.0262501 6.86875 0.0175 6.92125 0.0175 6.97375C0.00874998 7.035 0 7.0875 0 7.14C0 7.1925 -8.14907e-09 7.245 0.00874999 7.2975C0.00874999 7.35 0.0175 7.41125 0.02625 7.46375C0.035 7.51625 0.04375 7.56875 0.06125 7.62125C0.07 7.67375 0.0875 7.72625 0.11375 7.77C0.13125 7.8225 0.14875 7.875 0.175 7.91875C0.1925 7.97125 0.21875 8.015 0.25375 8.05875C0.28 8.11125 0.30625 8.155 0.34125 8.19875C0.37625 8.2425 0.41125 8.2775 0.44625 8.32125L3.115 11.2612C3.255 11.4187 3.4125 11.5588 3.57875 11.6813C3.745 11.8038 3.92875 11.9 4.12125 11.9875C4.305 12.075 4.50625 12.1363 4.7075 12.18C4.9175 12.2238 5.11875 12.25 5.32875 12.25H8.12875C8.925 12.25 9.6775 11.935 10.2375 11.3663C10.3775 11.235 10.5087 11.0775 10.6138 10.92C10.8335 10.5918 10.9852 10.2228 11.06 9.835C11.1037 9.6425 11.1213 9.45 11.1213 9.24875V4.05125C11.1213 3.99875 11.1125 3.955 11.1125 3.9025L11.0863 3.7625C11.0775 3.71 11.0688 3.66625 11.0513 3.61375C11.0425 3.57 11.025 3.52625 11.0075 3.47375C10.9812 3.43 10.9637 3.38625 10.9375 3.3425C10.9195 3.29886 10.8959 3.2577 10.8675 3.22C10.8413 3.17625 10.8062 3.1325 10.78 3.0975L10.675 2.9925L10.57 2.8875C10.5262 2.86125 10.4913 2.82625 10.4475 2.8C10.4098 2.77157 10.3686 2.74805 10.325 2.73C10.2812 2.70375 10.2375 2.68625 10.1937 2.66C10.1412 2.6425 10.0975 2.625 10.0538 2.61625C10.0013 2.59875 9.9575 2.59 9.905 2.58125C9.86125 2.56375 9.80875 2.56375 9.765 2.555C9.7125 2.555 9.66875 2.54625 9.61625 2.54625ZM10.0275 9.24875C10.0275 9.31875 10.0188 9.38 10.0188 9.44125L9.9925 9.625C9.975 9.68625 9.96625 9.7475 9.94 9.80875C9.9225 9.86125 9.905 9.9225 9.87875 9.98375C9.86125 10.0363 9.835 10.0975 9.8 10.15C9.77375 10.2025 9.73875 10.255 9.70375 10.3075C9.66875 10.36 9.63375 10.4125 9.59875 10.4563C9.51659 10.5519 9.42579 10.6398 9.3275 10.7188C9.28375 10.7625 9.23125 10.7975 9.17875 10.8325C9.12625 10.8675 9.07375 10.9025 9.02125 10.9288C8.96875 10.955 8.9075 10.9812 8.855 11.0075C8.79375 11.0337 8.74125 11.0512 8.68 11.0687C8.61875 11.0862 8.5575 11.1038 8.49625 11.1125C8.435 11.13 8.37375 11.1388 8.3125 11.1388C8.25125 11.1475 8.19 11.1562 8.12875 11.1562H5.32875C5.1975 11.1562 5.06625 11.1388 4.935 11.1125C4.80375 11.0863 4.68125 11.0425 4.55875 10.99C4.43625 10.9375 4.3225 10.8675 4.2175 10.7887C4.1125 10.7188 4.0075 10.6225 3.92 10.5262L1.25125 7.58625C1.22311 7.55795 1.1995 7.52549 1.18125 7.49L1.12875 7.385L1.1025 7.27125C1.1025 7.2275 1.09375 7.1925 1.1025 7.14875C1.1025 7.11375 1.11125 7.07 1.12 7.035C1.12875 7 1.1375 6.95625 1.155 6.92125C1.1725 6.88625 1.19875 6.85125 1.21625 6.825C1.2425 6.79 1.26875 6.76375 1.30375 6.7375C1.33072 6.71154 1.36001 6.68811 1.39125 6.6675C1.42455 6.64136 1.46351 6.62338 1.505 6.615C1.54 6.5975 1.575 6.58875 1.61875 6.58875C1.65375 6.58 1.6975 6.58 1.7325 6.58C1.77625 6.58 1.81125 6.58875 1.855 6.5975C1.89 6.60625 1.925 6.62375 1.96 6.64125C2.00375 6.65875 2.03 6.67625 2.065 6.7025C2.1 6.72875 2.12625 6.755 2.1525 6.78125L3.2725 8.05C3.28125 8.0675 3.3075 8.07625 3.325 8.085C3.35125 8.085 3.36875 8.085 3.395 8.07625C3.4125 8.0675 3.43 8.05875 3.43875 8.04125C3.45625 8.02375 3.465 7.9975 3.465 7.98V2.8175C3.465 2.59 3.64875 2.3975 3.8675 2.3975H3.87625C3.98125 2.3975 4.08625 2.44125 4.15625 2.52C4.235 2.59875 4.27875 2.695 4.27875 2.80875L4.2875 5.7575C4.2875 5.88 4.38375 5.97625 4.50625 5.97625H5.15375C5.27625 5.97625 5.3725 5.88 5.3725 5.7575L5.38125 1.49625C5.38125 1.26875 5.565 1.085 5.80125 1.09375C5.8275 1.09375 5.85375 1.09375 5.88 1.1025C5.90625 1.1025 5.9325 1.11125 5.95 1.12875C5.97625 1.1375 6.0025 1.14625 6.02 1.16375C6.04625 1.18125 6.06375 1.19875 6.08125 1.21625C6.09875 1.23375 6.11625 1.26 6.13375 1.2775C6.1425 1.30375 6.16 1.33 6.16875 1.3475C6.1775 1.37375 6.18625 1.4 6.18625 1.42625C6.195 1.4525 6.195 1.47875 6.195 1.505V5.7575C6.195 5.88 6.3 5.97625 6.41375 5.97625H7.07C7.1925 5.97625 7.28875 5.88 7.28875 5.7575V2.14375C7.28875 1.925 7.46375 1.7325 7.69125 1.72375C7.7175 1.72375 7.74375 1.7325 7.77 1.7325L7.84875 1.75875C7.875 1.7675 7.90125 1.77625 7.9275 1.79375C7.945 1.81125 7.97125 1.82875 7.98875 1.84625C8.00625 1.86375 8.02375 1.88125 8.04125 1.9075C8.05875 1.925 8.0675 1.95125 8.07625 1.9775C8.09375 2.00375 8.1025 2.03 8.1025 2.05625C8.11125 2.0825 8.11125 2.10875 8.11125 2.135V5.7575C8.11125 5.88 8.2075 5.97625 8.33 5.97625H8.98625C9.10875 5.97625 9.205 5.88 9.205 5.7575V4.06C9.205 3.84125 9.38 3.64875 9.6075 3.64C9.63375 3.64 9.66 3.64 9.68625 3.64875C9.7125 3.64875 9.73875 3.6575 9.765 3.66625C9.79125 3.68375 9.8175 3.6925 9.835 3.71C9.86125 3.71875 9.87875 3.73625 9.905 3.75375C9.9225 3.78 9.94 3.7975 9.9575 3.82375C9.96625 3.84125 9.98375 3.8675 9.9925 3.89375L10.0188 3.9725C10.0275 3.99875 10.0275 4.025 10.0275 4.05125V9.24875Z" fill="black"/>
</svg>
