<svg width="8" height="14" viewBox="0 0 8 14" fill="none" xmlns="http://www.w3.org/2000/svg">
<path d="M0.875 2.38301L5.54121 7.88184H3.16641C3.12812 7.88184 3.10215 7.91875 3.11445 7.9543L3.49863 9.04668L4.77012 12.6602L4.15078 12.8775L2.98184 9.55527L2.50059 8.18672C2.48691 8.14707 2.43359 8.1375 2.40625 8.17031L1.48203 9.28867L0.875 10.0229V2.38301ZM0 0V11.8467C0 12.0518 0.257031 12.1447 0.386914 11.9861L2.09316 9.92031C2.12051 9.8875 2.17246 9.89707 2.1875 9.93672L3.54238 13.7867C3.58203 13.9002 3.70781 13.9604 3.82129 13.9207L5.67793 13.2672C5.79141 13.2275 5.85156 13.1018 5.81191 12.9883L4.34902 8.8293C4.33672 8.79375 4.3627 8.75684 4.40098 8.75684H6.95898C7.14492 8.75684 7.24609 8.53809 7.12578 8.3959L0 0Z" fill="black"/>
</svg>
