<svg width="26" height="32" viewBox="0 0 26 32" fill="none" xmlns="http://www.w3.org/2000/svg">
<path d="M16.7143 1.77778C16.7143 0.795939 17.5458 0 18.5714 0H24.1429C25.1685 0 26 0.795938 26 1.77778V30.2222C26 31.2041 25.1685 32 24.1429 32H18.5714C17.5458 32 16.7143 31.2041 16.7143 30.2222V1.77778Z" fill="white"/>
<path d="M0 1.77778C0 0.795939 0.831471 0 1.85714 0H7.42857C8.45424 0 9.28571 0.795938 9.28571 1.77778V30.2222C9.28571 31.2041 8.45424 32 7.42857 32H1.85714C0.831471 32 0 31.2041 0 30.2222V1.77778Z" fill="white"/>
</svg>
